HIERARCHY
ROOT root
{
	OFFSET 0.000000 0.000000 0.000000
	CHANNELS 6 Xposition Yposition Zposition Zrotation Yrotation Xrotation
	JOINT lhip
	{
		OFFSET 0.058581 -0.082280 -0.017664
		CHANNELS 3 Zrotation Yrotation Xrotation
		JOINT lknee
		{
			OFFSET 0.043451 -0.386469 0.008037
			CHANNELS 3 Zrotation Yrotation Xrotation
			JOINT lankle
			{
				OFFSET -0.014790 -0.426874 -0.037428
				CHANNELS 3 Zrotation Yrotation Xrotation
				JOINT ltoe
				{
					OFFSET 0.041054 -0.060286 0.122042
					CHANNELS 3 Zrotation Yrotation Xrotation
					End Site
					{
						OFFSET 0.000000 0.000000 0.000000
					}
				}
			}
		}
	}
	JOINT rhip
	{
		OFFSET -0.060310 -0.090513 -0.013543
		CHANNELS 3 Zrotation Yrotation Xrotation
		JOINT rknee
		{
			OFFSET -0.043257 -0.383688 -0.004843
			CHANNELS 3 Zrotation Yrotation Xrotation
			JOINT rankle
			{
				OFFSET 0.019056 -0.420046 -0.034562
				CHANNELS 3 Zrotation Yrotation Xrotation
				JOINT rtoe
				{
					OFFSET -0.034840 -0.062106 0.130323
					CHANNELS 3 Zrotation Yrotation Xrotation
					End Site
					{
						OFFSET 0.000000 0.000000 0.000000
					}
				}
			}
		}
	}
	JOINT lowerback
	{
		OFFSET 0.004439 0.124404 -0.038385
		CHANNELS 3 Zrotation Yrotation Xrotation
		JOINT upperback
		{
			OFFSET 0.004488 0.137956 0.026820
			CHANNELS 3 Zrotation Yrotation Xrotation
			JOINT chest
			{
				OFFSET -0.002265 0.056032 0.002855
				CHANNELS 3 Zrotation Yrotation Xrotation
				JOINT lowerneck
				{
					OFFSET -0.013390 0.211636 -0.033468
					CHANNELS 3 Zrotation Yrotation Xrotation
					JOINT upperneck
					{
						OFFSET 0.010113 0.088937 0.050410
						CHANNELS 3 Zrotation Yrotation Xrotation
						End Site
						{
							OFFSET 0.000000 0.000000 0.000000
						}
					}
				}
				JOINT lclavicle
				{
					OFFSET 0.071702 0.114000 -0.018898
					CHANNELS 3 Zrotation Yrotation Xrotation
					JOINT lshoulder
					{
						OFFSET 0.122921 0.045205 -0.019046
						CHANNELS 3 Zrotation Yrotation Xrotation
						JOINT lelbow
						{
							OFFSET 0.255332 -0.015649 -0.022946
							CHANNELS 3 Zrotation Yrotation Xrotation
							JOINT lwrist
							{
								OFFSET 0.265709 0.012698 -0.007375
								CHANNELS 3 Zrotation Yrotation Xrotation
								End Site
								{
									OFFSET 0.000000 0.000000 0.000000
								}
							}
						}
					}
				}
				JOINT rclavicle
				{
					OFFSET -0.082954 0.112472 -0.023707
					CHANNELS 3 Zrotation Yrotation Xrotation
					JOINT rshoulder
					{
						OFFSET -0.113228 0.046853 -0.008472
						CHANNELS 3 Zrotation Yrotation Xrotation
						JOINT relbow
						{
							OFFSET -0.260127 -0.014369 -0.031269
							CHANNELS 3 Zrotation Yrotation Xrotation
							JOINT rwrist
							{
								OFFSET -0.269108 0.006794 -0.006027
								CHANNELS 3 Zrotation Yrotation Xrotation
								End Site
								{
									OFFSET 0.000000 0.000000 0.000000
								}
							}
						}
					}
				}
			}
		}
	}
}
MOTION
Frames: 7
Frame Time: 0.033333
0.709088 0.738333 0.981442 -81.817592 -5.168240 93.821722 24.452029 -0.461368 3.365960 -0.118886 -17.281518 34.869812 -9.673695 15.233431 13.408596 0.000000 -0.000000 0.000000 -22.904761 -13.680655 -55.132103 1.515796 -12.556139 65.459987 5.137838 -2.159220 -14.948445 0.000000 -0.000000 0.000000 2.748090 -11.702485 30.795303 1.813264 -1.089537 5.900530 0.885628 -5.075852 -0.565256 1.375367 -3.764934 5.325135 4.104887 -1.725340 3.664650 -12.456194 -10.714296 1.288461 -41.946094 -21.943976 6.313421 13.731585 -63.247722 -2.947493 8.853769 -6.207082 -22.156865 10.177433 11.030374 1.345174 31.838407 7.371017 1.188759 -14.333151 45.631567 -11.477699 -1.893272 6.611978 -2.000721 
0.690662 0.760791 1.000443 -83.411214 -4.170601 93.806431 22.548323 -1.573313 0.227305 -0.151956 -15.413311 46.558948 -6.198994 17.071563 9.108073 0.000000 -0.000000 0.000000 -19.960094 -11.648778 -52.119018 2.389070 -13.047712 62.039852 3.882672 -2.725262 -15.850717 0.000000 -0.000000 0.000000 2.662299 -10.518339 30.067131 2.221636 -1.038460 5.913017 1.126204 -4.560722 0.044423 1.462909 -3.341924 5.463978 3.495792 -0.940391 4.961988 -12.690612 -9.595589 0.933137 -43.650322 -20.775734 6.859816 12.928411 -63.221490 -0.920432 8.381499 -5.680272 -21.722084 10.133850 11.016162 1.065080 33.176991 8.555281 1.620854 -14.921533 46.037538 -11.106491 -1.402732 6.661875 -3.950410 
0.673701 0.782087 1.017935 -85.098282 -3.339134 93.869149 20.139605 -2.863652 -3.112950 -1.533345 -13.465771 57.362101 -4.475548 17.457916 3.438534 0.000000 -0.000000 0.000000 -17.074153 -9.694357 -49.265928 3.051825 -13.021102 58.387516 2.792936 -3.383713 -16.237250 0.000000 -0.000000 0.000000 2.471780 -9.080801 29.036656 2.460557 -1.165341 5.410892 1.139114 -4.128391 1.033220 1.483133 -2.911668 5.904708 3.102472 -0.748801 6.028876 -12.955813 -8.755537 1.315319 -45.010072 -19.286977 6.999561 11.623092 -62.570299 0.712898 7.096819 -5.689786 -20.596696 10.352504 10.871631 1.520362 35.291916 9.254482 2.350813 -15.152857 46.747932 -9.579169 -0.477889 6.438722 -4.790254 
0.657051 0.801735 1.035456 -87.026500 -2.612485 93.830279 17.229339 -3.586840 -6.120674 -2.703408 -10.908460 65.469829 -3.323605 17.684553 -1.968461 0.000000 -0.000000 0.000000 -14.062365 -7.524507 -46.118902 3.563848 -12.030386 54.151630 2.475988 -4.063841 -16.210828 0.000000 -0.000000 0.000000 2.340205 -7.417842 28.473508 2.470294 -0.966810 4.221745 0.973679 -3.805329 2.219585 1.499188 -2.784455 6.309578 2.925575 -0.453236 6.827817 -13.381181 -7.643383 1.582649 -46.320090 -18.092309 7.445740 9.224999 -60.872716 3.912874 6.507313 -5.977190 -19.598470 10.907255 9.827448 1.370419 37.722867 9.601170 3.830394 -14.407332 47.317609 -6.677500 0.971583 6.399965 -5.578801 
0.641175 0.819020 1.053225 -88.241441 -1.685665 93.571373 14.299845 -4.341808 -9.344522 -3.802467 -8.641219 70.699302 -1.437306 16.784530 -6.289482 0.000000 -0.000000 0.000000 -11.298082 -5.482964 -42.090205 3.945896 -11.091880 49.211752 2.411198 -5.226202 -15.614441 0.000000 -0.000000 0.000000 2.533300 -6.231306 27.650476 2.615979 -1.099982 3.847521 0.941060 -3.406284 3.039494 1.093320 -2.879657 6.713363 2.813065 0.366581 7.399207 -14.226883 -6.872701 2.037050 -47.690574 -16.947748 7.757914 8.342004 -58.538510 5.278628 5.699568 -5.538965 -18.082930 11.576867 9.055345 1.501182 39.534475 9.633813 5.184086 -13.237891 47.495323 -3.933910 2.536300 6.152579 -6.406689 
0.625439 0.834262 1.071126 -88.842025 -1.066717 93.218686 11.073461 -5.411500 -12.501408 -3.976049 -6.112429 72.594664 -2.318492 15.072863 -10.134344 0.000000 -0.000000 0.000000 -8.973753 -3.838268 -37.723396 3.616182 -10.389289 44.228480 2.921492 -5.629455 -14.981824 0.000000 -0.000000 0.000000 2.642153 -4.883963 27.017543 2.855168 -1.585802 3.216817 1.143230 -3.198167 3.737002 0.585158 -2.047681 7.636089 2.234355 1.611588 7.734738 -14.943490 -6.151593 2.204188 -49.845758 -15.725810 8.436151 8.435510 -55.151780 5.820904 4.538724 -6.109013 -16.540649 12.022510 8.160650 1.486289 41.696765 9.259555 6.670220 -12.700449 47.069921 -2.138395 3.893128 6.329744 -7.501271 
0.610408 0.848217 1.086777 -89.294414 -0.670679 93.092111 7.761002 -6.370830 -15.520862 -4.398096 -4.287612 71.408111 -1.974155 13.545547 -12.863755 0.000000 -0.000000 0.000000 -6.880235 -2.613292 -33.689072 3.489049 -9.469624 39.152328 3.074759 -6.160717 -14.206463 0.000000 -0.000000 0.000000 2.628804 -3.428241 25.718184 3.092649 -2.121268 2.908680 1.209333 -2.816404 4.049840 0.823969 -2.811823 8.466787 2.890952 0.788180 7.983218 -15.501535 -5.463027 3.045019 -51.750037 -14.553518 8.580765 8.307134 -52.313322 6.301816 3.444508 -6.404007 -15.282523 12.499415 7.156675 2.302561 44.026745 8.663123 7.179408 -12.720061 46.776401 -0.842538 4.363957 6.012690 -8.576918 
